<svg xmlns="http://www.w3.org/2000/svg" xmlns:xlink="http://www.w3.org/1999/xlink" viewBox="0 0 112 81" fill="#fff" fill-rule="evenodd" stroke="#000" stroke-linecap="round" stroke-linejoin="round"><use xlink:href="#A" x=".5" y=".5"/><symbol id="A" overflow="visible"><path d="M69.236 65.338c-.555-1.665-2.406-4.8-2.406-4.8s-.37 4.625-3.517 9.25-5.183 5.365-5.183 5.365-.185 1.48 1.48 1.665h8.7c1.296 0 2.22-1.1 2.22-2.405s-1.1-2.775-1.1-2.775.37-4.624-.185-6.3zM7.223 54.6L2.966 59.8C1.3 62 2.41 63.5 2.41 63.5s4.628 7.584 8.515 6.474c1.296-.37 2.406-2.405 2.406-2.405s-1.666-2.22-2.962-4.994c-1.666-2.96-2.962-7.214-3.147-7.954zM109.96 21.498C109.404 6.884 105.33 3 104.22 3c-1.48.185-2.036 2.6-3.702 3.7-2.22 1.665-3.702 1.295-4.998 2.6s1.296 4.625.925 13.32c-.37 7.954-5.553 10.914-5.553 10.914s2.406-3.515 2.777-5.92c.37-1.85-.74-2.22-1.48-2.775-1.48-1.295-4.443 2.035-5.183 2.775 1.296-1.48 3.332-3.145 2.6-4.625-1.48-2.405-4.628-.74-5.368-.555.74-.37 2.22-.925 1.85-2.405-.555-2.6-3.147-2.035-3.517-1.85 1.1-.555 1.666-1.1 4.628-.925 1.666 0 1.296-1.665.185-2.96C85.7 12.25 84.6 11.5 83.304 11.14c-1.48-.555-4.443-.185-4.443-.185s2.036-1.295 3.147-1.1C80.527 7.8 75.714.4 67.384.04c-15.18-.74-19.62 9.064-19.62 9.064l7.404-.37s-2.22.925-6.664 1.665l-4.443.74c-1.666.37-5.923 5.55-9.8 10-4.072 4.255-7.96 10-7.96 12.2s2.22 3.7 3.517 5.55 1.296 3.145 1.296 3.145l5.368-6.3-6.294 12.95s2.962 3.885 6.1 3.515c2.406-.37 7.775-4.624 11.107-5.18 3.517-.74 4.998-.185 4.998-.185s2.406-6.3 1.296-10.73c-2.036-7.954-.556-12.2 1.1-14.798-1.296 10.544 2.22 11.284 2.036 18.128-.185 5.18-1.85 10.73-1.85 10.73s-4.998-1.665-8.885.37-7.22 4.8-10.92 4.8c-3.887 0-9.07-6.66-9.07-6.66l2.776-4.07s-.37-1.295-1.48-2.6c-1.666-2.035-4.443-4.994-4.628-7.4-.185-4.07 3.887-8.5 5.368-10.174 1.48-1.85 5.923-6.66 5.923-6.66S21.1 19.63 15.732 25.92c-6.48 7.77-7.404 10-9.8 10.36S2.6 34.06 2.6 34.06s1.85-.185 1.666-2.405c-.37-3.515.555-5.55.555-5.55S.93 28.527.2 30.93c-.74 2.6.926 3.145.926 3.145s0 4.44 2.592 5.364c2.6 1.1 4.628.185 4.628.185s-1.666 8.14.555 14.058 6.664 12.394 6.664 12.394-.37 4.44-.926 5.55c-.37 1.1-2.036 3.7.556 5.55s9.07 2.6 10.55 1.665 1.1-3.515 1.296-4.44 2.22-4.625 2.592-5.55c.185-1.1.185-6.66-.185-8.5.37.925 2.036 5.18 8.145 5.365 5.553.185 7.404-2.775 7.404-4.8 0 .925.37 4.994-.185 5.734s-2.22 1.295-3.887 2.22c-1.666 1.1-3.887 2.22-.185 6.66 4.072 5.18 4.813 5.55 8.33 2.775s7.22-5.364 9.8-8.694 7.22-15.538 7.22-15.538-2.777-1.85-4.628-4.254c-1.296-1.85-1.666-2.96-1.666-2.96s3.702 3.7 7.6 4.625c1.48 1.665 3.887 4.07 5.923 4.8 7.6 3.145 9.996-6.3 9.996-6.3l-.37-.37s-2.036 4.8-5.368 4.44c-6.664-.74-4.628-14.428-4.628-14.428s6.664 9.62 20.177 9.25c8.145 0 17.585-9.804 16.845-27.377zm-47.018-.74s.555-6.3 1.85-7.214c1.666-1.1 6.1.37 6.1.37s-2.777 0-4.443 1.48c-1.48 1.295-3.517 5.365-3.517 5.365zm10.92 5.55c-2.036 1.665-3.887 3.7-3.887 3.7s.37-.925.74-1.48.926-1.48.926-1.48-.74-.185-1.666-1.1c-.555-.555-.74-1.1-.926-1.48 0 0-.37.185-.925.74-.555.37-1.296 1.295-1.296 1.295s1.85-3.515 4.443-5.364c2.776-1.85 5.553-1.85 5.553-1.85s-.37 0-1.296.555c-.925.37-.925.555-.925.555s.925.37 1.666 1.1a4.95 4.95 0 0 1 .925 2.035s.185 0 1.1-.37 1.85-.37 1.85-.37-3.517 1.295-6.294 3.515zm27.95-16.463c-2.22 1.665-4.627 1.85-4.813 1.1-.37-.74.185-.74.185-.74s2.406-.925 3.702-1.85c1.666-1.295 3.147-4.254 3.702-3.515.37.74-1.1 3.7-2.777 4.994z" fill="#0078d7" stroke="none"/></symbol></svg>